<svg width="89" height="89" viewBox="0 0 89 89" fill="none" xmlns="http://www.w3.org/2000/svg">
<path d="M44.5 89C69.0767 89 89 69.0767 89 44.5C89 19.9233 69.0767 0 44.5 0C19.9233 0 0 19.9233 0 44.5C0 69.0767 19.9233 89 44.5 89Z" fill="#FEFEFE"/>
<path d="M44.5 40C50.8513 40 56 34.8513 56 28.5C56 22.1487 50.8513 17 44.5 17C38.1487 17 33 22.1487 33 28.5C33 34.8513 38.1487 40 44.5 40Z" fill="#B4B4B4"/>
<path d="M64 53.5C64 42.7304 55.2696 34 44.5 34C33.7304 34 25 42.7304 25 53.5C25 64.2696 33.7304 73 44.5 73C55.2696 73 64 64.2696 64 53.5Z" fill="#454545"/>
</svg>
