<svg width="30" height="27" viewBox="0 0 30 27" fill="none" xmlns="http://www.w3.org/2000/svg">
<g clip-path="url(#clip0_157_197)">
<path d="M28.5703 11.4289H28.6003C29.1169 11.4289 29.5836 11.6422 29.9169 11.9867C30.2614 12.3211 30.4747 12.7878 30.4747 13.3044V13.3355V13.3344V13.3644C30.4747 13.8811 30.2614 14.3478 29.9169 14.6811C29.5825 15.0255 29.1158 15.2389 28.5992 15.2389H28.568H28.5692H28.3458L26.6336 25.0933C26.5611 25.5362 26.3291 25.9374 25.9814 26.2211L25.978 26.2233C25.6558 26.5 25.2336 26.6689 24.7725 26.6689H5.69805C5.23694 26.6689 4.81471 26.5 4.49027 26.2211L4.49249 26.2233C4.14587 25.9418 3.91363 25.5436 3.83916 25.1033L3.83805 25.0922L2.12583 15.2378H1.87249C1.35583 15.2378 0.889159 15.0244 0.555826 14.68C0.379101 14.5091 0.238628 14.3043 0.142794 14.0779C0.0469613 13.8515 -0.00226712 13.6081 -0.00195162 13.3622V13.3311V13.3022C-0.00195162 12.7855 0.211382 12.3189 0.555826 11.9855C0.890271 11.6411 1.35694 11.4278 1.8736 11.4278H1.90471H1.9036L28.5703 11.4289ZM7.21138 23.3333C7.33605 23.3248 7.45765 23.2908 7.56868 23.2335C7.67972 23.1762 7.77782 23.0967 7.85694 23L7.85805 22.9989C7.94246 22.9051 8.00657 22.795 8.04634 22.6753C8.08611 22.5556 8.10069 22.4289 8.08916 22.3033V22.3067L7.61249 16.1155C7.60399 15.9909 7.57002 15.8693 7.51269 15.7582C7.45536 15.6472 7.37588 15.5491 7.27916 15.47L7.27805 15.4689C7.18432 15.3845 7.07414 15.3204 6.95444 15.2806C6.83474 15.2408 6.7081 15.2262 6.58249 15.2378H6.58583C6.46116 15.2463 6.33955 15.2802 6.22852 15.3376C6.11749 15.3949 6.01939 15.4744 5.94027 15.5711L5.93916 15.5722C5.85475 15.6659 5.79064 15.7761 5.75087 15.8958C5.71109 16.0155 5.69652 16.1422 5.70805 16.2678V16.2644L6.18471 22.4555C6.20057 22.6955 6.30987 22.9197 6.48916 23.08L6.49027 23.0811C6.6618 23.2439 6.88933 23.3346 7.12583 23.3344H7.13805H7.13694L7.21138 23.3333ZM13.328 22.3822V16.1911V16.1822C13.3284 16.0588 13.3036 15.9366 13.255 15.8231C13.2065 15.7096 13.1353 15.6072 13.0458 15.5222C12.9605 15.4328 12.8579 15.3617 12.7443 15.3131C12.6306 15.2646 12.5083 15.2397 12.3847 15.24H12.3669C12.2435 15.2396 12.1213 15.2645 12.0078 15.313C11.8943 15.3615 11.7919 15.4327 11.7069 15.5222C11.6175 15.6075 11.5464 15.7101 11.4979 15.8238C11.4494 15.9374 11.4245 16.0597 11.4247 16.1833V22.3922C11.4247 22.6522 11.5325 22.8867 11.7069 23.0522C11.7922 23.1416 11.8948 23.2128 12.0085 23.2613C12.1221 23.3098 12.2445 23.3347 12.368 23.3344H12.3858C12.5093 23.3348 12.6315 23.3099 12.7449 23.2614C12.8584 23.2129 12.9608 23.1417 13.0458 23.0522C13.1365 22.9669 13.2087 22.8639 13.258 22.7497C13.3073 22.6354 13.3326 22.5122 13.3325 22.3878V22.3811L13.328 22.3822ZM19.0425 22.3822V16.1911V16.1822C19.0429 16.0588 19.018 15.9366 18.9695 15.8231C18.9209 15.7096 18.8498 15.6072 18.7603 15.5222C18.675 15.4328 18.5724 15.3617 18.4587 15.3131C18.3451 15.2646 18.2227 15.2397 18.0992 15.24H18.0814C17.958 15.2396 17.8358 15.2645 17.7223 15.313C17.6088 15.3615 17.5064 15.4327 17.4214 15.5222C17.332 15.6075 17.2608 15.7101 17.2123 15.8238C17.1638 15.9374 17.1389 16.0597 17.1392 16.1833V22.3922C17.1392 22.6522 17.2469 22.8867 17.4214 23.0522C17.5067 23.1416 17.6093 23.2128 17.7229 23.2613C17.8366 23.3098 17.9589 23.3347 18.0825 23.3344H18.1003C18.2237 23.3348 18.3459 23.3099 18.4594 23.2614C18.5729 23.2129 18.6753 23.1417 18.7603 23.0522C18.8509 22.9669 18.9231 22.8639 18.9724 22.7497C19.0217 22.6354 19.0471 22.5122 19.0469 22.3878V22.3811L19.0425 22.3822ZM24.2803 22.4555L24.7569 16.2644C24.7677 16.1392 24.7527 16.0131 24.713 15.8939C24.6733 15.7747 24.6096 15.6648 24.5258 15.5711L24.5269 15.5722C24.448 15.4754 24.3501 15.3956 24.2393 15.3379C24.1285 15.2802 24.0071 15.2458 23.8825 15.2367H23.8792C23.7539 15.2259 23.6278 15.2409 23.5086 15.2806C23.3894 15.3203 23.2795 15.384 23.1858 15.4678L23.1869 15.4667C23.0901 15.5456 23.0104 15.6434 22.9527 15.7543C22.895 15.8651 22.8605 15.9865 22.8514 16.1111V16.1144L22.3747 22.3055C22.364 22.4308 22.3789 22.5569 22.4187 22.6761C22.4584 22.7953 22.5221 22.9052 22.6058 22.9989L22.6047 22.9978C22.6836 23.0946 22.7815 23.1743 22.8923 23.232C23.0031 23.2897 23.1246 23.3242 23.2492 23.3333H23.338C23.5748 23.3333 23.8027 23.2427 23.9747 23.08C24.1563 22.9199 24.2676 22.6948 24.2847 22.4533V22.45L24.2803 22.4555ZM7.08249 4.34443L5.69916 10.4755H3.73471L5.23694 3.91332C5.41805 3.0411 5.89249 2.30221 6.55027 1.78554L6.55805 1.77999C7.22001 1.24318 8.0469 0.951199 8.89916 0.953322H8.94138H8.93916H11.4236V0.944433C11.4236 0.684433 11.5314 0.449989 11.7058 0.284433C11.7912 0.194731 11.8939 0.123349 12.0078 0.0746381C12.1216 0.0259269 12.2442 0.000905957 12.368 0.00109975H18.1036C18.3636 0.00109975 18.598 0.108878 18.7636 0.283322C18.853 0.368619 18.9242 0.471215 18.9727 0.584869C19.0212 0.698522 19.0461 0.820857 19.0458 0.944433V0.953322H21.5714C22.4614 0.953322 23.278 1.26443 23.918 1.78443L23.9114 1.77888C24.5854 2.3049 25.0518 3.05226 25.228 3.88888L25.2325 3.91221L26.7347 10.4744H24.7703L23.3869 4.34332C23.2864 3.92258 23.0497 3.54682 22.7136 3.27443L22.7103 3.2711C22.3832 3.00103 21.9722 2.85366 21.548 2.85443H19.0425V2.86332C19.0429 2.98675 19.018 3.10895 18.9695 3.22244C18.9209 3.33593 18.8498 3.43831 18.7603 3.52332C18.675 3.61274 18.5724 3.68387 18.4587 3.73239C18.3451 3.78091 18.2227 3.8058 18.0992 3.80554H12.368C12.2446 3.8059 12.1224 3.78106 12.0089 3.73253C11.8954 3.684 11.7931 3.61281 11.708 3.52332C11.6186 3.43802 11.5475 3.33543 11.499 3.22178C11.4505 3.10812 11.4256 2.98579 11.4258 2.86221V2.85332H8.92027C8.49514 2.85284 8.08323 3.00102 7.75583 3.27221L7.75916 3.26999C7.42552 3.5402 7.19008 3.91269 7.08916 4.32999L7.08694 4.34332L7.08249 4.34443Z" fill="black"/>
</g>
<defs>
<clipPath id="clip0_157_197">
<rect width="30" height="26.6667" fill="white"/>
</clipPath>
</defs>
</svg>
