<svg width="24" height="24" viewBox="0 0 24 24" fill="none" xmlns="http://www.w3.org/2000/svg">
<path d="M3.6001 5.1024C3.6001 3.9024 4.9393 3.1884 5.9365 3.8568L16.1353 10.7052C16.339 10.8419 16.506 11.0265 16.6217 11.2427C16.7375 11.459 16.7985 11.7003 16.7993 11.9456C16.8001 12.1908 16.7408 12.4326 16.6265 12.6496C16.5122 12.8666 16.3464 13.0523 16.1437 13.1904L5.9437 20.142C5.71828 20.2953 5.45533 20.3843 5.18313 20.3994C4.91092 20.4145 4.63975 20.3551 4.39877 20.2276C4.15778 20.1002 3.95608 19.9095 3.81537 19.676C3.67465 19.4425 3.60022 19.175 3.6001 18.9024V5.1024ZM20.4001 4.2C20.4001 4.04087 20.3369 3.88826 20.2244 3.77574C20.1118 3.66321 19.9592 3.6 19.8001 3.6C19.641 3.6 19.4884 3.66321 19.3758 3.77574C19.2633 3.88826 19.2001 4.04087 19.2001 4.2V19.8C19.2001 19.9591 19.2633 20.1117 19.3758 20.2243C19.4884 20.3368 19.641 20.4 19.8001 20.4C19.9592 20.4 20.1118 20.3368 20.2244 20.2243C20.3369 20.1117 20.4001 19.9591 20.4001 19.8V4.2Z" fill="white"/>
</svg>
